<svg xmlns="http://www.w3.org/2000/svg" width="11.889" height="31.939" viewBox="0 0 11.889 31.939">
  <g id="Group_271" data-name="Group 271" transform="translate(-15.562 14.371)">
    <g id="Group_58" data-name="Group 58" transform="translate(0 -26.473)">
      <g id="Group_55" data-name="Group 55" transform="translate(15.561 12.102)">
        <path id="Path_42" data-name="Path 42" d="M5.012,7.316V-.717a2.42,2.42,0,0,0-.868-1.992,3.707,3.707,0,0,0-2.41-.707h-5.27a4.166,4.166,0,0,0-2.408.641A2.251,2.251,0,0,0-6.876-.781V7.766a.869.869,0,0,0,.514.835,1.03,1.03,0,0,0,1,0,.876.876,0,0,0,.482-.835v-7.9h.643V20.555A1.178,1.178,0,0,0-2.924,21.9a1.178,1.178,0,0,0,1.317-1.349V8.409H-.257V20.555A1.178,1.178,0,0,0,1.06,21.9a1.178,1.178,0,0,0,1.317-1.349V-.139h.643V7.316A1.146,1.146,0,0,0,3.5,8.345a.851.851,0,0,0,1,0,1.123,1.123,0,0,0,.514-1.029M.932-5.376a2.673,2.673,0,0,0,.8-1.961,2.6,2.6,0,0,0-.8-1.895A2.63,2.63,0,0,0-1-10.036a2.625,2.625,0,0,0-1.928.8,2.628,2.628,0,0,0-.8,1.928,2.628,2.628,0,0,0,.8,1.928A2.625,2.625,0,0,0-1-4.572a2.63,2.63,0,0,0,1.928-.8" transform="translate(6.876 10.036)" fill="#797e8d"/>
      </g>
    </g>
  </g>
</svg>
