<svg xmlns="http://www.w3.org/2000/svg" xmlns:xlink="http://www.w3.org/1999/xlink" width="15.763" height="31.743" viewBox="0 0 15.763 31.743">
  <defs>
    <clipPath id="clip-path">
      <path id="Path_45" data-name="Path 45" d="M0,13.27H15.763V-18.473H0Z" transform="translate(0 18.473)" fill="#797e8d"/>
    </clipPath>
  </defs>
  <g id="Group_270" data-name="Group 270" transform="translate(0 18.473)">
    <g id="Group_62" data-name="Group 62" transform="translate(0 -18.473)" clip-path="url(#clip-path)">
      <g id="Group_60" data-name="Group 60" transform="translate(0 6.579)">
        <path id="Path_43" data-name="Path 43" d="M6,5.874,2.17-4.728a.184.184,0,0,1-.064-.127.283.283,0,0,1,.32-.32c.127,0,.211.084.254.254L5.3,1.915a1.379,1.379,0,0,0,1.406.7q.384,0,.543-.574a3.67,3.67,0,0,0,.16-.766L4.726-5.3a2.969,2.969,0,0,0-1.15-2.043,3.643,3.643,0,0,0-2.364-.83H-2.174a3.678,3.678,0,0,0-2.4.863A3.267,3.267,0,0,0-5.813-5.3L-8.3,1.339c-.084.127-.064.373.064.734s.32.543.576.543q1.214,0,1.4-.638l2.555-6.9a.252.252,0,0,1,.256-.191.226.226,0,0,1,.256.256v.064L-6.963,5.874V6.7c0,.086.107.235.318.447s.363.32.448.32H-3.77v8.24a1.181,1.181,0,0,0,.416.894,1.329,1.329,0,0,0,.926.383,1.224,1.224,0,0,0,.894-.383,1.221,1.221,0,0,0,.383-.894V7.151c0-.041.117-.074.351-.095a3.374,3.374,0,0,1,.672,0c.213.021.32.053.32.095v8.5a1.332,1.332,0,0,0,.383.926,1.212,1.212,0,0,0,.926.414,1.217,1.217,0,0,0,.926-.414,1.339,1.339,0,0,0,.383-.926V7.47H5.3c.127,0,.277-.107.447-.32A.973.973,0,0,0,6,6.7v-.83Z" transform="translate(8.355 8.177)" fill="#797e8d"/>
      </g>
      <g id="Group_61" data-name="Group 61" transform="translate(5.097 -0.001)">
        <path id="Path_44" data-name="Path 44" d="M0,1.135A2.612,2.612,0,0,0,.8,3.051a2.609,2.609,0,0,0,1.916.8,2.614,2.614,0,0,0,1.916-.8,2.61,2.61,0,0,0,.8-1.916,2.61,2.61,0,0,0-.8-1.916,2.614,2.614,0,0,0-1.916-.8A2.609,2.609,0,0,0,.8-.781,2.612,2.612,0,0,0,0,1.135" transform="translate(0 1.58)" fill="#797e8d"/>
      </g>
    </g>
  </g>
</svg>
